<svg xmlns="http://www.w3.org/2000/svg" viewBox="0 0 177.783 177.783"><path d="M57.06 114.115c-15.243 0-29.573-5.937-40.35-16.71C5.94 86.625 0 72.3 0 57.055 0 41.81 5.94 27.48 16.71 16.71 27.487 5.934 41.817 0 57.067 0c15.24 0 29.56 5.934 40.34 16.71 10.773 10.78 16.71 25.106 16.71 40.344s-5.936 29.565-16.71 40.34c-10.78 10.784-25.112 16.72-40.347 16.72zm.006-103.697c-12.47 0-24.175 4.853-32.983 13.66-8.804 8.808-13.66 20.52-13.66 32.98s4.857 24.167 13.66 32.975c8.808 8.81 20.514 13.664 32.976 13.664 12.453 0 24.17-4.85 32.978-13.664 8.81-8.81 13.657-20.518 13.657-32.976s-4.846-24.172-13.657-32.98c-8.808-8.806-20.518-13.66-32.972-13.66z" fill="inherit"/><path d="M172.573 177.783a5.163 5.163 0 0 1-3.68-1.528L90.04 97.398a5.21 5.21 0 0 1 0-7.365 5.212 5.212 0 0 1 7.372 0l78.853 78.856a5.227 5.227 0 0 1 0 7.368 5.223 5.223 0 0 1-3.69 1.525z" fill="inherit"/></svg>